<?xml version="1.0" encoding="UTF-8"?>
<svg id="Layer_1" data-name="Layer 1" xmlns="http://www.w3.org/2000/svg" viewBox="0 0 250 250">
  <defs>
    <style>
      .cls-1 {
        stroke: #000;
        stroke-miterlimit: 10;
      }
    </style>
  </defs>
  <path class="cls-1" d="m119.43,17.4c-4.2-5.71-13.86-4.65-19.42-2.07-39.42,18.3-44.79,192.79-.34,218.27,6.33,3.63,16.67,5.95,23.17,0,18.96-17.35-7.95-92.86-2.04-95.67,6.83-3.25,37.96,99.86,62.7,94.85,4.31-.87,8.65-5.07,10.22-10.35,8.12-27.26-64.98-57.97-63.72-103.54,1.11-40.51,60.22-65.56,53.5-85.32-2.1-6.19-9.78-9.24-15.68-8.7-27.4,2.51-38.94,84.42-48.39,82.01-4.79-1.22-5.52-23.2-5.11-35.2,1.04-30.42,11.15-46.05,5.11-54.26Z"/>
</svg>