<?xml version="1.0" encoding="UTF-8"?>
<svg id="Layer_1" data-name="Layer 1" xmlns="http://www.w3.org/2000/svg" viewBox="0 0 250 250">
  <defs>
    <style>
      .cls-1 {
        opacity: .3;
      }

      .cls-1, .cls-2, .cls-3, .cls-4, .cls-5, .cls-6, .cls-7, .cls-8 {
        stroke: #000;
        stroke-miterlimit: 10;
      }

      .cls-1, .cls-2, .cls-3, .cls-4, .cls-6, .cls-7, .cls-8 {
        fill: blue;
      }

      .cls-2 {
        opacity: .41;
      }

      .cls-4 {
        opacity: .44;
      }

      .cls-5 {
        fill: #c1272d;
      }

      .cls-6 {
        opacity: .2;
      }

      .cls-7 {
        opacity: .1;
      }

      .cls-8 {
        opacity: .5;
      }
    </style>
  </defs>
  <rect class="cls-5" x="-.5" y="-.5" width="250" height="250"/>
  <path class="cls-3" d="m123.06,23.97c-3.41-5.34-11.26-4.35-15.78-1.94-32.03,17.1-36.39,180.21-.28,204.03,5.14,3.39,13.54,5.57,18.83,0,15.4-16.22-6.46-86.8-1.66-89.43,5.55-3.04,30.84,93.35,50.95,88.66,3.5-.82,7.03-4.74,8.31-9.68,6.6-25.49-52.79-54.19-51.78-96.79.9-37.87,48.93-61.28,43.47-79.76-1.71-5.79-7.94-8.64-12.74-8.13-22.26,2.35-31.64,78.92-39.32,76.66-3.89-1.14-4.49-21.69-4.15-32.91.85-28.44,9.06-43.04,4.15-50.72Z"/>
  <path class="cls-6" d="m202.92,224.72c3.41,5.34,11.26,4.35,15.78,1.94,32.03-17.1,36.39-180.21.28-204.03-5.14-3.39-13.54-5.57-18.83,0-15.4,16.22,6.46,86.8,1.66,89.43-5.55,3.04-30.84-93.35-50.95-88.66-3.5.82-7.03,4.74-8.31,9.68-6.6,25.49,52.79,54.19,51.78,96.79-.9,37.87-48.93,61.28-43.47,79.76,1.71,5.79,7.94,8.64,12.74,8.13,22.26-2.35,31.64-78.92,39.32-76.66,3.89,1.14,4.49,21.69,4.15,32.91-.85,28.44-9.06,43.04-4.15,50.72Z"/>
  <path class="cls-4" d="m249.75,119.76c5.22-3.49,4.25-11.51,1.89-16.14-16.73-32.76-176.22-37.22-199.52-.28-3.32,5.26-5.44,13.85,0,19.25,15.86,15.75,84.88-6.61,87.45-1.7,2.97,5.67-91.28,31.54-86.7,52.1.8,3.58,4.63,7.19,9.46,8.49,24.92,6.74,52.99-53.99,94.65-52.95,37.03.92,59.92,50.04,77.99,44.46,5.66-1.75,8.44-8.12,7.95-13.03-2.29-22.77-77.17-32.36-74.96-40.21,1.12-3.98,21.21-4.59,32.18-4.25,27.81.87,42.09,9.26,49.6,4.25Z"/>
  <path class="cls-7" d="m152.16.73c-4.26-4.65-11.83-2.29-15.87.9-28.64,22.53-5.24,183.94,34.37,200.98,5.64,2.43,14.28,3.08,18.54-3.34,12.42-18.71-21.1-84.34-16.82-87.78,4.95-3.98,46.22,86.45,65.23,78.27,3.31-1.42,6.12-5.91,6.54-11.01,2.17-26.27-61.19-43.99-67.43-86.13-5.54-37.45,37.78-69.04,29.27-86.26-2.67-5.4-9.29-7.09-13.92-5.75-21.53,6.26-17.76,83.34-25.7,82.48-4.03-.44-8.1-20.56-9.68-31.67-3.99-28.16,1.61-44-4.52-50.69Z"/>
  <path class="cls-8" d="m15.51,104.56c-6.19-.76-10.5,6.02-11.59,11.12-7.78,36.09,111.6,144.35,152.66,131.37,5.85-1.85,12.87-7.03,12.1-14.75-2.25-22.5-69.18-50.73-68.06-56.19,1.29-6.3,89.75,35.84,99.16,17.08,1.64-3.26.97-8.55-1.91-12.73-14.85-21.55-74.53,6.53-105.79-21.65-27.79-25.05-14.45-77.72-31.8-85.32-5.43-2.38-11.57.67-14.28,4.75-12.55,18.95,38.78,75.51,32.15,80.08-3.36,2.31-19.13-10.43-27.32-17.9-20.76-18.94-26.42-34.76-35.32-35.85Z"/>
  <path class="cls-2" d="m21.26,18.05c-5.56-2.88-11.88,1.99-14.61,6.39-19.38,31.19,56.6,174.68,99.52,176.84,6.11.31,14.45-2.11,16.31-9.63,5.41-21.93-48.04-71.87-45.17-76.6,3.32-5.47,72.35,65.07,87.47,50.73,2.63-2.5,3.77-7.69,2.46-12.63-6.75-25.44-72.21-19.93-92.16-57.35-17.73-33.26,12.41-78.09-1.35-91.3-4.31-4.14-11.1-3.42-15.01-.53-18.13,13.41,11.18,84.52,3.43,86.49-3.93,1-14.49-16.49-19.69-26.38-13.17-25.06-13.2-41.91-21.2-46.05Z"/>
  <path class="cls-1" d="m69.33,195.5c-2.82,5.69,1.95,12.15,6.25,14.95,30.5,19.82,170.81-57.88,172.92-101.77.3-6.25-2.06-14.78-9.41-16.67-21.44-5.53-70.28,49.12-74.91,46.19-5.35-3.39,63.63-73.99,49.61-89.45-2.44-2.69-7.52-3.86-12.35-2.52-24.88,6.9-19.49,73.85-56.08,94.25-32.52,18.13-76.36-12.69-89.28,1.38-4.05,4.41-3.34,11.35-.52,15.35,13.12,18.54,82.65-11.44,84.58-3.51.98,4.02-16.12,14.82-25.79,20.13-24.51,13.47-40.98,13.5-45.03,21.68Z"/>
</svg>